<svg width="64" height="64" viewBox="0 0 64 64" fill="none" xmlns="http://www.w3.org/2000/svg">
<path d="M32 64C14.3545 64 0 49.6455 0 32C0 14.3545 14.3545 0 32 0C49.6455 0 64 14.3545 64 32C64 49.6455 49.6455 64 32 64ZM32 4C16.5601 4 4 16.5601 4 32C4 47.4399 16.5601 60 32 60C47.4399 60 60 47.4399 60 32C60 16.5601 47.4399 4 32 4Z" fill="#19D49C"/>
<path d="M29.002 42.667C28.4897 42.667 27.978 42.4727 27.5884 42.0806L18.9219 33.4141C18.1406 32.6323 18.1406 31.3657 18.9219 30.5845C19.7031 29.8032 20.9697 29.8032 21.7515 30.5845L29.0044 37.8379L44.9248 21.918C45.7061 21.1367 46.9727 21.1367 47.7539 21.918C48.5352 22.6992 48.5352 23.9658 47.7539 24.7471L30.4204 42.0806C30.0259 42.4727 29.5142 42.667 29.002 42.667Z" fill="#19D49C"/>
</svg>
