<svg width="30" height="30" viewBox="0 0 30 30" fill="none" xmlns="http://www.w3.org/2000/svg">
<path d="M26.2866 13.2198C27.861 13.2303 28.3708 12.7844 28.567 12.495C29.2977 11.5387 28.1534 9.70591 25.4704 8.31548C26.511 6.34791 27.2346 4.58423 27.5997 3.31744C27.7977 2.62427 27.6635 2.20416 27.626 2.13091C27.5252 2.74732 26.6973 4.97037 24.8018 7.99322C23.337 7.3358 21.4901 6.81548 19.3075 6.59869C18.7836 5.60611 17.2637 2.85689 15.7637 1.38795C14.777 0.418219 13.9872 0.0625545 13.3708 0.0127498H13.3678C12.5575 -0.0780705 12.0395 0.355523 11.7624 0.657281C10.7545 1.74302 10.3368 3.52076 10.2975 5.58326C9.87329 4.85962 9.29146 4.14009 8.62759 4.06392H8.61704C7.40649 3.86002 6.36763 5.77603 6.50767 8.82701C4.26001 8.90787 2.34751 9.16392 1.05845 9.48502C0.478369 9.62857 0.108057 9.91099 0.0178223 10.0545C0.076416 10.0323 1.33032 9.51431 6.55454 9.51431C6.8604 12.6198 8.29771 15.4803 8.07798 14.9747C7.50786 15.877 5.83735 18.6286 5.30591 20.6993C4.96196 22.0399 5.04985 22.903 5.3147 23.4614C5.64106 24.2085 6.27622 24.4411 6.67407 24.5313C8.13892 24.8659 9.91899 24.3186 11.7542 23.2926C11.3129 24.045 10.9397 24.9631 11.2233 25.5977C11.6516 26.7491 13.8301 26.6911 16.4053 25.044C17.5877 26.9295 18.7532 28.4389 19.669 29.387C19.8193 29.5491 19.992 29.6889 20.1817 29.8024C20.4829 29.9905 20.6844 29.9999 20.6844 29.9999C20.2016 29.6044 18.6922 27.7733 17.02 24.6221C18.3219 23.6846 19.6948 22.3446 20.9733 20.5633C28.1698 20.8329 29.3692 19.1126 29.6452 18.7094C30.5047 17.5446 29.8461 15.3438 26.2866 13.2198ZM21.725 19.4436C23.1202 17.234 23.5028 15.4727 23.4506 14.0336C25.0831 15.0631 26.2151 16.2356 26.3252 17.4807C26.392 18.2383 25.8506 19.187 21.725 19.4436ZM12.7098 22.7161C13.2817 22.351 13.8542 21.9473 14.4208 21.5155C14.8122 22.2965 15.2176 23.0448 15.6278 23.7532C13.2489 25.034 11.5942 24.5008 12.7098 22.7161ZM25.3075 12.676C24.7045 12.3631 24.0676 12.0702 23.4102 11.7942C23.8759 11.087 24.3202 10.366 24.7426 9.63209C27.0313 11.0442 27.4321 12.7481 25.3075 12.676ZM16.359 23.3202C16.0362 22.6551 15.7145 21.9432 15.3922 21.185C17.9264 21.2594 19.0497 20.0876 19.1 19.9891C19.1 19.9932 17.6352 20.9055 15.4362 20.7069C17.2313 19.2075 18.8984 17.5612 20.4202 15.785C20.9303 15.187 21.4172 14.5794 21.8809 13.9622C21.8598 13.9452 21.7907 13.7864 20.9135 13.259C17.8842 16.7905 14.917 19.0012 13.1352 20.0512C11.9288 19.3961 10.7422 18.1891 9.87095 16.4483C8.69907 14.1092 8.11314 11.6208 8.02114 9.64732C8.74185 9.70064 9.50181 9.77447 10.2975 9.87466C8.99146 12.0309 9.45435 13.5661 9.50825 13.6381C9.50825 13.634 9.45259 11.929 10.6883 10.1477C11.2149 13.2233 12.0931 16.2281 13.3057 19.1032C13.3602 19.0809 13.4135 19.1547 14.3997 18.6198C12.8569 14.2563 12.4215 10.5239 12.4075 8.45787C13.5793 7.73013 15.2305 7.29771 17.1905 7.41431C19.802 7.57076 22.2506 8.30787 24.0061 9.21373C23.5885 9.82545 23.1329 10.4596 22.6391 11.1163C21.4245 8.90611 19.87 8.54517 19.7762 8.55455C19.7827 8.55455 21.2938 9.37896 22.209 11.3213C20.0119 10.515 17.7513 9.89351 15.4508 9.46334C14.6853 9.32149 13.9156 9.20327 13.1428 9.10884C13.1387 9.13521 13.0368 9.21724 13.0163 10.3001C17.579 11.1491 21.0231 12.6374 22.8149 13.6522C22.8582 15.0321 22.4077 16.6762 21.326 18.3145C19.8846 20.5006 18.0219 22.2538 16.359 23.3202ZM17.9645 6.50377C15.3536 6.4065 13.6532 6.93912 12.4163 7.7149C12.5334 4.65044 13.6649 3.23951 14.6551 3.30396C15.6454 3.05552 17.8719 6.36021 17.9645 6.50377ZM10.3092 6.68541C10.3374 7.39498 10.4024 8.12798 10.4973 8.86978C9.64478 8.81998 8.81333 8.79654 8.01294 8.79595C8.00825 8.9858 8.00591 5.80767 9.45845 5.89029H9.46372C9.80122 5.95416 10.0866 6.29341 10.3092 6.68541ZM8.66509 16.1776C9.88149 18.5038 11.2022 19.7266 12.4883 20.4145C9.74673 21.8653 7.94556 21.5864 7.51255 20.6788C7.50083 20.6665 6.8604 19.7823 8.66509 16.1782V16.1776Z" fill="white"/>
</svg>
