<svg width="25" height="26" viewBox="0 0 25 26" fill="none" xmlns="http://www.w3.org/2000/svg">
<rect y="5" x="5" width="15" height="15" rx="12.5" fill="#DEE3EF"/>
<path d="M12.4997 5.716C16.4559 5.716 19.6756 8.9357 19.6756 12.8919C19.6756 16.8482 16.4559 20.0679 12.4997 20.0679C8.54349 20.0679 5.32379 16.8482 5.32379 12.8919C5.32379 8.9357 8.54349 5.716 12.4997 5.716ZM12.4997 4.55859C7.89113 4.55859 4.16638 8.28334 4.16638 12.8919C4.16638 17.5005 7.89113 21.2253 12.4997 21.2253C17.1083 21.2253 20.833 17.5005 20.833 12.8919C20.833 8.28334 17.1083 4.55859 12.4997 4.55859Z" fill="#42588F"/>
<path d="M12.5039 18.1942C9.57878 18.1942 7.24292 15.8162 7.24292 12.8701V12.4492H17.7648V12.8701C17.7648 15.8162 15.4289 18.1942 12.5039 18.1942ZM7.83215 13.1016C8.0005 15.6268 10.0207 17.4787 12.5039 17.4787C14.987 17.4787 17.0072 15.6268 17.1756 13.1016H7.83215Z" fill="#42588F"/>
<path d="M9.17952 11.2304C9.64441 11.2304 10.0213 10.8535 10.0213 10.3886C10.0213 9.92374 9.64441 9.54688 9.17952 9.54688C8.71463 9.54688 8.33777 9.92374 8.33777 10.3886C8.33777 10.8535 8.71463 11.2304 9.17952 11.2304Z" fill="#42588F"/>
<path d="M15.8939 11.2304C16.3588 11.2304 16.7356 10.8535 16.7356 10.3886C16.7356 9.92374 16.3588 9.54688 15.8939 9.54688C15.429 9.54688 15.0521 9.92374 15.0521 10.3886C15.0521 10.8535 15.429 11.2304 15.8939 11.2304Z" fill="#42588F"/>
</svg>
