<svg width="31" height="22" viewBox="0 0 31 22" fill="none" xmlns="http://www.w3.org/2000/svg">
<path d="M9.60107 11.2734C12.5026 11.2734 14.8511 8.925 14.8511 6.02344C14.8511 3.12188 12.5026 0.773438 9.60107 0.773438C6.69951 0.773438 4.35107 3.12188 4.35107 6.02344C4.35107 8.925 6.69951 11.2734 9.60107 11.2734ZM13.2011 12.7734H12.812C11.837 13.2422 10.7542 13.5234 9.60107 13.5234C8.44795 13.5234 7.36982 13.2422 6.39014 12.7734H6.00107C3.01982 12.7734 0.601074 15.1922 0.601074 18.1734V19.5234C0.601074 20.7656 1.60889 21.7734 2.85107 21.7734H16.3511C17.5933 21.7734 18.6011 20.7656 18.6011 19.5234V18.1734C18.6011 15.1922 16.1823 12.7734 13.2011 12.7734ZM23.1011 11.2734C25.5854 11.2734 27.6011 9.25781 27.6011 6.77344C27.6011 4.28906 25.5854 2.27344 23.1011 2.27344C20.6167 2.27344 18.6011 4.28906 18.6011 6.77344C18.6011 9.25781 20.6167 11.2734 23.1011 11.2734ZM25.3511 12.7734H25.173C24.5214 12.9984 23.8323 13.1484 23.1011 13.1484C22.3698 13.1484 21.6808 12.9984 21.0292 12.7734H20.8511C19.8948 12.7734 19.0136 13.05 18.2401 13.4953C19.3839 14.7281 20.1011 16.3641 20.1011 18.1734V19.9734C20.1011 20.0766 20.0776 20.175 20.0729 20.2734H28.3511C29.5933 20.2734 30.6011 19.2656 30.6011 18.0234C30.6011 15.1219 28.2526 12.7734 25.3511 12.7734Z" fill="#568596"/>
</svg>
