<svg width="18" height="18" viewBox="0 0 18 18" fill="none" xmlns="http://www.w3.org/2000/svg">
<g clip-path="url(#clip0)">
<path d="M16.9245 2.73996C16.6525 2.468 16.3257 2.33203 15.9436 2.33203H2.05489C1.67296 2.33203 1.34609 2.46797 1.07394 2.73996C0.801951 3.01198 0.666016 3.33885 0.666016 3.72082V14.2762C0.666016 14.6583 0.801951 14.9852 1.07394 15.2572C1.34609 15.5292 1.67296 15.6652 2.05489 15.6652H15.9438C16.3257 15.6652 16.6526 15.5292 16.9246 15.2572C17.1966 14.9852 17.3327 14.6583 17.3327 14.2762V3.72082C17.3327 3.33885 17.1966 3.01198 16.9245 2.73996ZM16.2213 14.2762C16.2213 14.3516 16.194 14.4165 16.139 14.4716C16.084 14.5263 16.0189 14.5538 15.9436 14.5538H2.05489C1.97971 14.5538 1.91458 14.5263 1.85961 14.4716C1.80467 14.4165 1.77716 14.3516 1.77716 14.2762V3.7207C1.77716 3.64548 1.80458 3.5805 1.85961 3.52541C1.91461 3.47059 1.97974 3.44308 2.05489 3.44308H15.9438C16.019 3.44308 16.0841 3.47059 16.139 3.52541C16.1938 3.5805 16.2213 3.64548 16.2213 3.7207V14.2762Z" fill="#263251"/>
<path d="M4.55523 7.88789C5.01825 7.88789 5.41173 7.72593 5.73584 7.40183C6.05985 7.07772 6.22191 6.68426 6.22191 6.22137C6.22191 5.75831 6.05976 5.36486 5.73584 5.04072C5.41173 4.71674 5.01822 4.55469 4.55523 4.55469C4.09227 4.55469 3.69881 4.71674 3.37471 5.04072C3.05072 5.36483 2.88867 5.75828 2.88867 6.22137C2.88867 6.68426 3.05063 7.07781 3.37471 7.40183C3.69881 7.72584 4.09227 7.88789 4.55523 7.88789Z" fill="#263251"/>
<path d="M7.05528 10.3877L5.66637 8.99898L2.88867 11.7766V13.4434H15.1108V9.55452L11.4997 5.94336L7.05528 10.3877Z" fill="#263251"/>
</g>
<defs>
<clipPath id="clip0">
<rect x="0.666016" y="0.666016" width="16.6667" height="16.6667" fill="white"/>
</clipPath>
</defs>
</svg>
