<svg width="15" height="15" viewBox="0 0 15 15" fill="none" xmlns="http://www.w3.org/2000/svg">
<path d="M8.169 4.11703C7.79696 4.48827 7.19397 4.48827 6.82192 4.11703C6.44999 3.74578 6.44999 3.14382 6.82192 2.77258C7.19397 2.40133 7.79696 2.40133 8.169 2.77258C8.54094 3.14382 8.54094 3.74578 8.169 4.11703Z" fill="#EA0404"/>
<path d="M9.47034 5.5594C9.35429 5.5594 9.23825 5.51511 9.1499 5.42642C8.9732 5.24949 8.97355 4.96282 9.15047 4.78624C9.50902 4.42838 9.70643 3.95265 9.70643 3.44671C9.70643 2.94076 9.50902 2.46503 9.15047 2.10718C8.97355 1.93048 8.9732 1.64392 9.1499 1.46688C9.32648 1.28995 9.61316 1.28961 9.79008 1.46631C10.3201 1.99525 10.6119 2.69849 10.6119 3.44671C10.6119 4.19481 10.3201 4.89816 9.79008 5.42711C9.70173 5.51534 9.58603 5.5594 9.47034 5.5594Z" fill="#EA0404"/>
<path d="M10.4938 6.8912C10.3777 6.8912 10.2617 6.84691 10.1733 6.75834C9.99664 6.5813 9.99698 6.29474 10.1739 6.11804C10.8892 5.40416 11.2832 4.4551 11.2832 3.44562C11.2832 2.43613 10.8892 1.48707 10.1739 0.773192C9.99698 0.596495 9.99664 0.309935 10.1733 0.132895C10.35 -0.0440309 10.6366 -0.0443742 10.8135 0.132323C11.7002 1.01729 12.1886 2.19398 12.1885 3.44562C12.1885 4.69726 11.7002 5.87405 10.8135 6.75902C10.7252 6.84714 10.6095 6.8912 10.4938 6.8912Z" fill="#EA0404"/>
<path d="M5.51862 5.55749C5.40292 5.55749 5.28722 5.51343 5.19875 5.4252C4.66878 4.89625 4.37695 4.1929 4.37695 3.4448C4.37695 2.69658 4.66878 1.99334 5.19875 1.4644C5.37568 1.2877 5.66235 1.28793 5.83894 1.46497C6.01563 1.64189 6.01529 1.92857 5.83836 2.10527C5.47982 2.46312 5.28241 2.93885 5.28241 3.4448C5.28241 3.95074 5.47982 4.42647 5.83836 4.78433C6.01529 4.96091 6.01563 5.24758 5.83894 5.42451C5.75059 5.51309 5.63454 5.55749 5.51862 5.55749Z" fill="#EA0404"/>
<path d="M4.49565 6.89126C4.37984 6.89126 4.26414 6.8472 4.17579 6.75897C3.2891 5.874 2.80078 4.69731 2.80078 3.44567C2.80078 2.19392 3.2891 1.01724 4.17579 0.132265C4.35271 -0.044317 4.63939 -0.0440881 4.81597 0.132952C4.99267 0.309878 4.99233 0.596438 4.8154 0.773135C4.10014 1.48702 3.70612 2.43608 3.70612 3.44556C3.70612 4.45504 4.10014 5.40422 4.8154 6.1181C4.99233 6.2948 4.99267 6.58136 4.81597 6.7584C4.72762 6.84697 4.61158 6.89126 4.49565 6.89126Z" fill="#EA0404"/>
<path d="M13.4613 7.67383H1.52778C0.942878 7.67383 0.46875 8.14796 0.46875 8.73275V13.9408C0.46875 14.5257 0.942878 14.9999 1.52778 14.9999H13.4612C14.0461 14.9999 14.5202 14.5257 14.5202 13.9408V8.73275C14.5202 8.14796 14.0461 7.67383 13.4613 7.67383ZM3.95129 13.6411H2.28332C2.03338 13.6411 1.83071 13.4384 1.83071 13.1884V9.48531C1.83071 9.23537 2.03338 9.03258 2.28332 9.03258C2.53337 9.03258 2.73605 9.23526 2.73605 9.48531V12.7356H3.95129C4.20135 12.7356 4.40402 12.9383 4.40402 13.1884C4.40402 13.4384 4.20135 13.6411 3.95129 13.6411ZM5.80661 13.1884C5.80661 13.4384 5.60393 13.6411 5.35388 13.6411C5.10383 13.6411 4.90115 13.4384 4.90115 13.1884V9.48531C4.90115 9.23537 5.10383 9.03258 5.35388 9.03258C5.60393 9.03258 5.80661 9.23526 5.80661 9.48531V13.1884ZM9.61565 9.61623L8.49768 13.3192C8.49756 13.3195 8.49745 13.3199 8.49733 13.3202C8.37591 13.7346 7.7569 13.7244 7.63125 13.3202C7.63113 13.3199 7.63102 13.3195 7.6309 13.3192L6.51293 9.61623C6.44072 9.37682 6.5761 9.12425 6.81551 9.05192C7.0547 8.97971 7.3075 9.11509 7.37971 9.3545L8.06429 11.6219L8.74888 9.3545C8.8212 9.11509 9.07377 8.9796 9.31318 9.05192C9.55248 9.12425 9.68797 9.37682 9.61565 9.61623ZM12.4008 10.651C12.6508 10.651 12.8535 10.8537 12.8535 11.1037C12.8535 11.3537 12.6508 11.5565 12.4008 11.5565H11.1161V12.7356H12.6447C12.8947 12.7356 13.0974 12.9383 13.0974 13.1884C13.0974 13.4384 12.8947 13.6411 12.6447 13.6411H10.6634C10.4133 13.6411 10.2106 13.4384 10.2106 13.1884V9.48531C10.2106 9.23537 10.4133 9.03258 10.6634 9.03258H12.7057C12.9556 9.03258 13.1584 9.23526 13.1584 9.48531C13.1584 9.73536 12.9556 9.93804 12.7057 9.93804H11.116V10.651H12.4008Z" fill="#EA0404"/>
</svg>
