<svg width="18" height="16" viewBox="0 0 18 16" fill="none" xmlns="http://www.w3.org/2000/svg">
<path d="M4.30469 8.67948V14.3873C4.30469 14.7275 4.57964 15.0023 4.91971 15.0023C5.25921 15.0023 5.53474 14.7275 5.53474 14.3873V8.67948C5.53474 8.33987 5.25921 8.06445 4.91971 8.06445C4.57964 8.06445 4.30469 8.33958 4.30469 8.67948Z" fill="#263251"/>
<path d="M2.37429 15.01H3.72851V8.23336C3.73222 8.20088 3.73813 8.16847 3.73813 8.13518C3.73813 5.21158 6.09791 2.83336 8.99807 2.83336C11.8979 2.83336 14.2577 5.21158 14.2577 8.13518C14.2577 8.17989 14.2642 8.22321 14.2709 8.26642V15.01H15.6253C16.5679 15.01 17.3327 14.2189 17.3327 13.2429V9.70902C17.3327 8.90418 16.8114 8.22611 16.0997 8.01275C16.0343 4.12883 12.8748 0.988281 8.99836 0.988281C5.12088 0.988281 1.96096 4.12912 1.89613 8.01426C1.18541 8.22791 0.666016 8.9054 0.666016 9.7096V13.2429C0.666016 14.2183 1.43078 15.01 2.37429 15.01Z" fill="#263251"/>
<path d="M12.4648 8.67948V14.3873C12.4648 14.7275 12.7402 15.0023 13.0798 15.0023C13.4194 15.0023 13.6948 14.7275 13.6948 14.3873V8.67948C13.6948 8.33987 13.4194 8.06445 13.0798 8.06445C12.7396 8.06445 12.4648 8.33958 12.4648 8.67948Z" fill="#263251"/>
</svg>
