<svg width="18" height="14" viewBox="0 0 18 14" fill="none" xmlns="http://www.w3.org/2000/svg">
<path d="M1.01408 5.68256C1.89928 2.51683 4.08302 0.21875 6.20571 0.21875C6.3762 0.21875 6.54653 0.23359 6.71247 0.262934C6.80657 0.279461 6.88887 0.334775 6.9398 0.415049C6.99056 0.495828 7.0049 0.593977 6.97909 0.685718L6.54214 2.24869C6.49998 2.39962 6.35445 2.50165 6.20318 2.49474L6.16844 2.49406C5.38122 2.49406 3.94254 3.67388 3.20912 6.29608C3.18011 6.40013 3.15262 6.50655 3.12614 6.61751C3.94945 6.21007 4.93162 6.1158 5.82103 6.36354C7.82753 6.92495 9.00296 9.01374 8.44206 11.0199C7.9874 12.6454 6.49206 13.7811 4.80564 13.7811C4.46212 13.7811 4.11911 13.7337 3.78604 13.6404C2.46288 13.2706 1.46806 12.1721 0.984736 10.5479C0.548461 9.08254 0.559422 7.30928 1.01408 5.68256Z" fill="#263251"/>
<path d="M14.9563 0.21875C15.1264 0.21875 15.2969 0.233253 15.4627 0.262597C15.5566 0.278786 15.6391 0.334438 15.6898 0.414711C15.7406 0.495491 15.7549 0.59364 15.7293 0.685381L15.2922 2.24835C15.25 2.39928 15.1072 2.50131 14.9532 2.4944L14.9188 2.49372C14.1316 2.49372 12.6928 3.67354 11.9593 6.29575C11.9302 6.40047 11.9027 6.50688 11.8764 6.61718C12.7 6.20974 13.6818 6.11547 14.5713 6.3632C16.5774 6.92461 17.7532 9.0134 17.1919 11.0196C16.7373 12.6451 15.2419 13.7807 13.5555 13.7807C13.212 13.7807 12.869 13.7333 12.5357 13.6401C11.2128 13.2703 10.2179 12.1717 9.73445 10.5475C9.29834 9.08221 9.30913 7.30877 9.76396 5.68189C10.6497 2.51649 12.8331 0.21875 14.9563 0.21875Z" fill="#263251"/>
</svg>
