<svg width="18" height="18" viewBox="0 0 18 18" fill="none" xmlns="http://www.w3.org/2000/svg">
<g clip-path="url(#clip0)">
<path d="M7.273 4.30173C7.10485 3.75768 6.60124 3.38672 6.03153 3.38672H4.62091C4.04969 3.38672 3.54481 3.7601 3.37777 4.30693L0.720744 13.0018C0.60486 13.3795 0.67523 13.7895 0.910759 14.1069C1.14562 14.4242 1.51705 14.6116 1.91209 14.6116C2.47203 14.6116 2.96301 14.2382 3.11281 13.6991L3.65908 11.7303H6.87322L7.4615 13.6868C7.62643 14.2358 8.13171 14.6116 8.70602 14.6116C9.11941 14.6116 9.50784 14.4152 9.75254 14.0828C9.99777 13.7502 10.0699 13.3211 9.94766 12.9267L7.273 4.30173ZM4.02557 9.83206L4.69091 7.45013C4.87384 6.80061 5.04112 5.95174 5.20812 5.28526H5.2399C5.40697 5.95174 5.608 6.78419 5.80692 7.45013L6.50666 9.83206H4.02557Z" fill="#263251"/>
<path d="M17.2962 12.8383V10.5198C17.2962 8.95196 16.5865 7.64258 14.3628 7.64258C13.5372 7.64258 12.8507 7.79393 12.3502 7.97222C12.0176 8.09083 11.8346 8.44614 11.9312 8.78566L11.9378 8.808C11.9886 8.98666 12.111 9.1366 12.2759 9.22289C12.4403 9.30925 12.6326 9.3245 12.809 9.26498C13.1734 9.14201 13.5913 9.06069 13.995 9.06069C15.0182 9.06069 15.2094 9.56547 15.2094 9.91998V10.0158C12.8495 10.0019 11.2949 10.8336 11.2949 12.5658C11.2949 13.6299 12.0995 14.6112 13.4504 14.6112C14.2409 14.6112 14.9221 14.3245 15.3591 13.7927H15.3993L15.4529 14.0844C15.4935 14.3026 15.6835 14.4613 15.9058 14.4613H16.8721C17.0005 14.4613 17.1229 14.408 17.2098 14.314C17.2972 14.2201 17.3414 14.0939 17.3316 13.9661C17.3065 13.6378 17.2962 13.2437 17.2962 12.8383ZM15.2766 12.0337C15.2766 12.1563 15.2635 12.2793 15.2356 12.3882C15.0995 12.8111 14.6767 13.1519 14.1584 13.1519C13.6951 13.1519 13.3401 12.8929 13.3401 12.3612C13.3401 11.5566 14.1862 11.2976 15.2766 11.3109V12.0337Z" fill="#263251"/>
</g>
<defs>
<clipPath id="clip0">
<rect x="0.666016" y="0.666016" width="16.6667" height="16.6667" fill="white"/>
</clipPath>
</defs>
</svg>
